<svg width="55" height="55" viewBox="0 0 55 55" fill="none" xmlns="http://www.w3.org/2000/svg">
<path d="M28.3594 24.0625H34.375V20.625H30.9375V18.9062H27.5V20.7109C26.4557 20.923 25.5275 21.5155 24.8955 22.3734C24.2635 23.2314 23.9728 24.2935 24.0799 25.3537C24.187 26.4139 24.6842 27.3965 25.475 28.1107C26.2658 28.8249 27.2938 29.2198 28.3594 29.2188H30.0781C30.306 29.2188 30.5246 29.3093 30.6858 29.4705C30.847 29.6316 30.9375 29.8502 30.9375 30.0781C30.9375 30.306 30.847 30.5246 30.6858 30.6858C30.5246 30.847 30.306 30.9375 30.0781 30.9375H24.0625V34.375H27.5V36.0938H30.9375V34.2891C31.9818 34.077 32.91 33.4845 33.542 32.6266C34.174 31.7686 34.4647 30.7065 34.3576 29.6463C34.2505 28.5861 33.7533 27.6035 32.9625 26.8893C32.1717 26.1751 31.1437 25.7802 30.0781 25.7812H28.3594C28.1315 25.7812 27.9129 25.6907 27.7517 25.5295C27.5905 25.3684 27.5 25.1498 27.5 24.9219C27.5 24.694 27.5905 24.4754 27.7517 24.3142C27.9129 24.153 28.1315 24.0625 28.3594 24.0625Z" fill="#FFBB01"/>
<path d="M49.8438 22.3438H46.3719C46.3225 20.9858 45.9949 19.6525 45.4096 18.4262C44.8242 17.1999 43.9935 16.1067 42.9688 15.2144V8.59375C42.9688 8.27456 42.8799 7.96167 42.7121 7.69015C42.5442 7.41863 42.3041 7.1992 42.0186 7.05645C41.7332 6.91371 41.4135 6.85328 41.0956 6.88195C40.7777 6.91061 40.4741 7.02723 40.2187 7.21875L33.8027 12.0313H25.7812C16.3109 12.0313 9.51672 17.6017 8.68313 25.7812H8.59375C8.13791 25.7812 7.70074 25.6002 7.37841 25.2778C7.05608 24.9555 6.875 24.5183 6.875 24.0625V20.625H3.4375V24.0625C3.43887 25.4296 3.98255 26.7403 4.94924 27.707C5.91593 28.6737 7.22665 29.2174 8.59375 29.2188H8.71406C8.96332 31.4725 9.69578 33.6459 10.8615 35.5908C12.0272 37.5357 13.5987 39.2063 15.4688 40.4886V46.4062C15.4688 46.8621 15.6498 47.2993 15.9722 47.6216C16.2945 47.9439 16.7317 48.125 17.1875 48.125H24.0625C24.5183 48.125 24.9555 47.9439 25.2778 47.6216C25.6002 47.2993 25.7812 46.8621 25.7812 46.4062V42.9688H30.9375V46.4062C30.9375 46.8621 31.1186 47.2993 31.4409 47.6216C31.7632 47.9439 32.2004 48.125 32.6562 48.125H39.5312C39.9871 48.125 40.4243 47.9439 40.7466 47.6216C41.0689 47.2993 41.25 46.8621 41.25 46.4062V40.6261C42.4915 40.0375 43.5771 39.1649 44.4188 38.0789C45.2605 36.993 45.8348 35.7241 46.0952 34.375H49.8438C50.2996 34.375 50.7368 34.1939 51.0591 33.8716C51.3814 33.5493 51.5625 33.1121 51.5625 32.6562V24.0625C51.5625 23.6067 51.3814 23.1695 51.0591 22.8472C50.7368 22.5248 50.2996 22.3438 49.8438 22.3438ZM48.125 30.9375H43.1819C42.6577 35.6692 41.7656 36.9273 37.8125 38.3539V44.6875H34.375V39.5312H22.3438V44.6875H18.9062V38.4622C16.8367 37.4776 15.0907 35.9234 13.8731 33.9818C12.6554 32.0403 12.0165 29.7918 12.0312 27.5C12.0313 19.1898 18.9372 15.4688 25.7812 15.4688H34.9473L39.5312 12.0313V16.8025C43.6872 19.9994 42.8192 22.2784 42.9997 25.7812H48.125V30.9375Z" fill="#FFBB01"/>
</svg>
