<svg width="55" height="43" viewBox="0 0 55 43" fill="none" xmlns="http://www.w3.org/2000/svg">
<path d="M12.3935 42.8308C12.4055 42.8389 12.4216 42.8349 12.4337 42.8429C12.5287 42.8957 12.6349 42.9252 12.7436 42.9288C12.8034 42.9286 12.863 42.9205 12.9207 42.9046L27.5003 38.9257L42.08 42.9046C42.1377 42.9205 42.1973 42.9286 42.2571 42.9288C42.3656 42.9255 42.4715 42.8955 42.5656 42.8416C42.5791 42.8348 42.5938 42.8375 42.6059 42.8295L54.6796 35.4511C54.8043 35.3745 54.9006 35.2593 54.9539 35.123C55.0072 34.9867 55.0145 34.8367 54.9747 34.6958L48.2886 11.2192C48.2612 11.1214 48.212 11.0311 48.1446 10.9552C48.0772 10.8793 47.9934 10.8196 47.8996 10.7809C47.8057 10.7421 47.7043 10.7252 47.603 10.7314C47.5016 10.7376 47.403 10.7668 47.3146 10.8167L40.658 14.5515C40.5122 14.6436 40.4074 14.7881 40.3652 14.9552C40.3229 15.1224 40.3466 15.2994 40.4312 15.4496C40.5157 15.5998 40.6548 15.7118 40.8196 15.7624C40.9845 15.8129 41.1624 15.7983 41.3167 15.7213L47.2315 12.4011L53.546 34.5711L42.7937 41.1432L40.2394 20.7105C40.2174 20.5338 40.1261 20.3731 39.9855 20.2638C39.845 20.1545 39.6669 20.1055 39.4902 20.1276C39.3136 20.1496 39.1529 20.2409 39.0436 20.3815C38.9343 20.522 38.8853 20.7001 38.9073 20.8768L41.4656 41.3471L28.1711 37.7183V34.0559C28.1711 33.878 28.1004 33.7074 27.9746 33.5816C27.8489 33.4558 27.6782 33.3852 27.5003 33.3852C27.3224 33.3852 27.1518 33.4558 27.026 33.5816C26.9002 33.7074 26.8296 33.878 26.8296 34.0559V37.7183L13.5337 41.3471L16.092 20.8768C16.103 20.7893 16.0965 20.7006 16.0732 20.6156C16.0498 20.5306 16.0099 20.451 15.9558 20.3815C15.9016 20.3119 15.8343 20.2537 15.7577 20.2101C15.6811 20.1665 15.5966 20.1385 15.5091 20.1276C15.4217 20.1166 15.3329 20.123 15.2479 20.1464C15.1629 20.1698 15.0834 20.2097 15.0138 20.2638C14.9442 20.318 14.886 20.3853 14.8424 20.4619C14.7989 20.5385 14.7708 20.623 14.7599 20.7105L12.207 41.1432L1.45467 34.5724L7.76922 12.4037L13.684 15.724C13.8383 15.8009 14.0162 15.8156 14.181 15.7651C14.3459 15.7145 14.4849 15.6025 14.5695 15.4523C14.6541 15.3021 14.6777 15.1251 14.6355 14.9579C14.5933 14.7908 14.4885 14.6462 14.3427 14.5542L7.6847 10.8181C7.59652 10.7676 7.49794 10.7379 7.39652 10.7315C7.29511 10.725 7.19356 10.7418 7.09966 10.7807C7.00576 10.8195 6.92201 10.8794 6.85483 10.9556C6.78765 11.0319 6.73882 11.1225 6.7121 11.2205L0.0259474 34.6972C-0.014492 34.838 -0.0075089 34.9882 0.0458213 35.1247C0.0991514 35.2612 0.195871 35.3763 0.321083 35.4524L12.3935 42.8308Z" fill="#FFBB01"/>
<path d="M27.0456 31.3487C27.1687 31.4624 27.33 31.5258 27.4975 31.5266C27.6651 31.5273 27.8269 31.4653 27.9511 31.3527C28.3978 30.9463 38.9033 21.3061 38.9033 11.4029C38.9033 5.00791 33.8954 0 27.5003 0C21.1053 0 16.0974 5.00791 16.0974 11.4029C16.0974 21.1344 26.5988 30.9355 27.0456 31.3487V31.3487ZM27.5003 1.34152C33.2354 1.34152 37.5618 5.66659 37.5618 11.4029C37.5618 19.5822 29.522 27.9533 27.5044 29.9254C25.4907 27.9305 17.4389 19.4494 17.4389 11.4029C17.4389 5.66659 21.7653 1.34152 27.5003 1.34152Z" fill="#FFBB01"/>
<path d="M33.5372 11.403C33.5372 8.07469 30.8287 5.36615 27.5003 5.36615C24.172 5.36615 21.4635 8.07469 21.4635 11.403C21.4635 14.7313 24.172 17.4399 27.5003 17.4399C30.8287 17.4399 33.5372 14.7313 33.5372 11.403ZM27.5003 16.0983C24.9112 16.0983 22.805 13.9921 22.805 11.403C22.805 8.81386 24.9112 6.70767 27.5003 6.70767C30.0895 6.70767 32.1957 8.81386 32.1957 11.403C32.1957 13.9921 30.0895 16.0983 27.5003 16.0983Z" fill="#FFBB01"/>
</svg>
