<svg width="50" height="50" viewBox="0 0 50 50" fill="none" xmlns="http://www.w3.org/2000/svg">
<path d="M50 24.5198C50 23.9521 49.718 23.453 49.2887 23.1399L49.2978 23.1245L43.2523 19.6714L46.7322 13.7081L46.7205 13.701C46.8304 13.4552 46.8802 13.1873 46.8659 12.9189C46.8516 12.6505 46.7736 12.3893 46.6381 12.1563C46.5017 11.9235 46.3117 11.7259 46.0836 11.5795C45.8554 11.433 45.5956 11.3418 45.3252 11.3134V11.2967H38.3434V4.40898H38.3291C38.3001 4.14177 38.2078 3.88508 38.0598 3.65972C37.9117 3.43437 37.7122 3.24669 37.4771 3.11188C37.2413 2.97747 36.9767 2.90015 36.7049 2.88621C36.4331 2.87228 36.1619 2.92213 35.9132 3.0317L35.9048 3.01694L29.7575 6.52848L26.3535 0.694737L26.3412 0.701793C26.1809 0.484796 25.9713 0.308184 25.7292 0.186261C25.4871 0.064337 25.2194 0.000528161 24.9478 0C24.374 0 23.8689 0.279049 23.5531 0.703718L23.5376 0.694737L20.0772 6.6247L14.1185 3.22094L14.1114 3.23313C13.863 3.12438 13.5922 3.07508 13.3209 3.08923C13.0496 3.10339 12.7856 3.1806 12.5501 3.31459C12.3147 3.44947 12.1148 3.63741 11.9666 3.86314C11.8185 4.08886 11.7262 4.34599 11.6975 4.61362H11.68V11.4609H4.79933V11.4744C4.52924 11.5031 4.2698 11.5944 4.04202 11.7409C3.81425 11.8873 3.62455 12.0848 3.4883 12.3173C3.3528 12.5505 3.27479 12.812 3.2606 13.0806C3.2464 13.3493 3.29642 13.6174 3.4066 13.8633L3.39169 13.8723L6.7931 19.7015L0.702198 23.181L0.70933 23.1932C0.490002 23.3517 0.311494 23.5592 0.188261 23.7987C0.0650285 24.0382 0.000533833 24.303 0 24.5718C0 25.1395 0.282046 25.6392 0.711275 25.9516L0.702198 25.967L6.74772 29.4202L3.26785 35.3835L3.27952 35.3899C3.1696 35.6357 3.11978 35.9036 3.13408 36.172C3.14839 36.4404 3.22643 36.7016 3.36186 36.9346C3.4983 37.1674 3.68831 37.365 3.91644 37.5115C4.14457 37.6579 4.40441 37.7491 4.67484 37.7775V37.7949H11.656V44.6819H11.6702C11.7299 45.2054 12.0262 45.6955 12.5222 45.979C12.7581 46.1133 13.0227 46.1905 13.2944 46.2045C13.5662 46.2184 13.8375 46.1686 14.0861 46.0592L14.0945 46.074L20.2418 42.5624L23.6459 48.3962L23.6582 48.3891C23.8184 48.6061 24.0281 48.7827 24.2701 48.9046C24.5122 49.0266 24.7799 49.0904 25.0515 49.0909C25.6254 49.0909 26.1305 48.8119 26.4462 48.3878L26.4611 48.3962L29.9215 42.4662L35.8808 45.87L35.888 45.8578C36.1364 45.9665 36.4072 46.0158 36.6785 46.0017C36.9497 45.9875 37.2138 45.9103 37.4493 45.7763C37.6847 45.6414 37.8846 45.4535 38.0327 45.2278C38.1809 45.002 38.2731 44.7449 38.3019 44.4773H38.3194V37.6306H45.2007V37.6172C45.4708 37.5884 45.7302 37.4971 45.958 37.3507C46.1858 37.2042 46.3755 37.0067 46.5117 36.7742C46.6472 36.5409 46.7251 36.2793 46.7393 36.0106C46.7535 35.7419 46.7035 35.4736 46.5934 35.2276L46.6083 35.2193L43.2069 29.39L49.2978 25.9106L49.2907 25.8984C49.5101 25.7399 49.6886 25.5325 49.8119 25.293C49.9351 25.0534 49.9996 24.7886 50 24.5198V24.5198ZM20.9246 31.8296L14.5406 29.0391L17.3578 33.8664L15.7654 34.776L11.4459 27.3751L13.0831 26.4391L19.2621 29.109L16.5487 24.4595L18.1417 23.5499L22.46 30.9508L20.9246 31.8296V31.8296ZM23.9409 30.1066L19.622 22.705L24.916 19.6817L25.7252 21.0686L22.0236 23.1823L22.93 24.736L26.5526 22.6672L27.3617 24.0528L23.7392 26.1229L24.7235 27.8094L28.4251 25.6957L29.2343 27.0826L23.9409 30.1066V30.1066ZM36.1992 23.1047L31.9212 18.772L33.5856 24.5968L31.8926 25.5641L25.4315 19.3872L27.2146 18.3685L31.6482 22.9667L29.9514 16.8052L31.1963 16.0944L35.7304 20.6356L33.9214 14.5375L35.7045 13.5188L37.8928 22.1379L36.1992 23.1047Z" fill="#FFBB01"/>
</svg>
