<svg width="20" height="20" viewBox="0 0 20 20" fill="none" xmlns="http://www.w3.org/2000/svg">
<path d="M12.5 10.8334H13.75V13.1834L15.7833 14.3584L15.1583 15.4417L12.5 13.9084V10.8334ZM15.8333 6.66671H4.16667V15.8334H8.05833C7.7 15.075 7.5 14.225 7.5 13.3334C7.5 11.7863 8.11458 10.3025 9.20854 9.20858C10.3025 8.11462 11.7862 7.50004 13.3333 7.50004C14.225 7.50004 15.075 7.70004 15.8333 8.05837V6.66671ZM4.16667 17.5C3.72464 17.5 3.30072 17.3244 2.98816 17.0119C2.67559 16.6993 2.5 16.2754 2.5 15.8334V4.16671C2.5 3.24171 3.24167 2.50004 4.16667 2.50004H5V0.833374H6.66667V2.50004H13.3333V0.833374H15V2.50004H15.8333C16.2754 2.50004 16.6993 2.67564 17.0118 2.9882C17.3244 3.30076 17.5 3.72468 17.5 4.16671V9.25004C18.5333 10.3 19.1667 11.7417 19.1667 13.3334C19.1667 14.8805 18.5521 16.3642 17.4581 17.4582C16.3642 18.5521 14.8804 19.1667 13.3333 19.1667C11.7417 19.1667 10.3 18.5334 9.25 17.5H4.16667ZM13.3333 9.29171C12.2614 9.29171 11.2334 9.71752 10.4754 10.4755C9.71748 11.2334 9.29167 12.2615 9.29167 13.3334C9.29167 15.5667 11.1 17.375 13.3333 17.375C13.8641 17.375 14.3897 17.2705 14.88 17.0674C15.3704 16.8643 15.8159 16.5666 16.1912 16.1913C16.5665 15.816 16.8642 15.3704 17.0673 14.8801C17.2705 14.3897 17.375 13.8641 17.375 13.3334C17.375 11.1 15.5667 9.29171 13.3333 9.29171Z" fill="#949494"/>
</svg>
