<svg width="20" height="20" viewBox="0 0 20 20" fill="none" xmlns="http://www.w3.org/2000/svg">
<path d="M7.42188 13.75H12.5781C12.6641 13.75 12.7344 13.6797 12.7344 13.5938V11.9531C12.7344 11.8672 12.6641 11.7969 12.5781 11.7969H11.7969C11.7109 11.7969 11.6406 11.8672 11.6406 11.9531V12.6563H8.35938V11.9531C8.35938 11.8672 8.28907 11.7969 8.20313 11.7969H7.42188C7.33594 11.7969 7.26563 11.8672 7.26563 11.9531V13.5938C7.26563 13.6797 7.33594 13.75 7.42188 13.75ZM14.0625 11.3477C14.0625 11.5549 14.1448 11.7536 14.2913 11.9001C14.4378 12.0466 14.6366 12.1289 14.8438 12.1289C15.051 12.1289 15.2497 12.0466 15.3962 11.9001C15.5427 11.7536 15.625 11.5549 15.625 11.3477C15.625 11.1405 15.5427 10.9417 15.3962 10.7952C15.2497 10.6487 15.051 10.5664 14.8438 10.5664C14.6366 10.5664 14.4378 10.6487 14.2913 10.7952C14.1448 10.9417 14.0625 11.1405 14.0625 11.3477ZM18.7305 8.07422L18.2676 7.26563C18.2468 7.22998 18.2127 7.20402 18.1728 7.1934C18.1329 7.18279 18.0905 7.18839 18.0547 7.20898L17.0645 7.78711L15.5352 3.56445C15.4544 3.31249 15.2957 3.0927 15.0819 2.93683C14.8681 2.78096 14.6103 2.69707 14.3457 2.69727H5.88282C5.20508 2.69727 4.60352 3.13477 4.39453 3.78125L2.9375 7.78906L1.94532 7.21094C1.90954 7.19035 1.86708 7.18474 1.82719 7.19536C1.7873 7.20597 1.75323 7.23193 1.73243 7.26758L1.26953 8.07422C1.22657 8.14844 1.25196 8.24219 1.32618 8.28516L2.50586 8.97266L2.22266 9.75391C2.19922 9.81641 2.1875 9.88281 2.1875 9.94922V16.75C2.1875 17.0566 2.41797 17.3047 2.70118 17.3047H4.02149C4.26172 17.3047 4.47071 17.123 4.52149 16.8691L4.67188 16.1328H15.3281L15.4785 16.8691C15.5313 17.123 15.7383 17.3047 15.9785 17.3047H17.2988C17.582 17.3047 17.8125 17.0566 17.8125 16.75V9.94922C17.8125 9.88281 17.8008 9.81641 17.7773 9.75391L17.4941 8.97266L18.6719 8.28516C18.7073 8.26468 18.7333 8.23111 18.7443 8.19167C18.7553 8.15222 18.7503 8.11005 18.7305 8.07422V8.07422ZM16.4063 10.0977V14.7266H3.59375V10.0977L3.89844 9.25781H16.1016L16.4063 10.0977ZM5.7168 4.25977L5.72657 4.23438L5.73438 4.20898C5.75586 4.14453 5.81446 4.10156 5.88282 4.10156H14.2344L15.707 8.16406H4.29688L5.7168 4.25977ZM4.375 11.3477C4.375 11.5549 4.45731 11.7536 4.60383 11.9001C4.75034 12.0466 4.94905 12.1289 5.15625 12.1289C5.36345 12.1289 5.56217 12.0466 5.70868 11.9001C5.85519 11.7536 5.9375 11.5549 5.9375 11.3477C5.9375 11.1405 5.85519 10.9417 5.70868 10.7952C5.56217 10.6487 5.36345 10.5664 5.15625 10.5664C4.94905 10.5664 4.75034 10.6487 4.60383 10.7952C4.45731 10.9417 4.375 11.1405 4.375 11.3477Z" fill="#949494"/>
</svg>
