<svg width="150" height="150" viewBox="0 0 150 150" fill="none" xmlns="http://www.w3.org/2000/svg">
<path d="M44.5312 28.125C38.3437 28.125 32.8312 32.1563 31.0546 38.086L24.6093 59.6204L15.5249 56.5454L12.5999 65.3297L21.8249 68.4094L18.8953 78.3704C18.7829 78.8 18.7339 79.2437 18.7499 79.6875V117.188C18.7499 119.766 20.8593 121.875 23.4374 121.875H37.4999L39.1124 117.188H110.887L112.5 121.875H126.562C129.141 121.875 131.25 119.766 131.25 117.188V113.231C131.269 112.997 131.269 112.739 131.25 112.5V79.6875C131.266 79.2437 131.217 78.8 131.105 78.3704L128.175 68.4094L137.4 65.3344L134.47 56.5407L125.391 59.6204L118.945 38.086C118.067 35.1982 116.282 32.6701 113.855 30.876C111.428 29.0819 108.487 28.1173 105.469 28.125H44.5312ZM44.5312 37.5H105.469C107.555 37.5 109.406 38.8735 110.011 40.8704L116.016 60.9375H33.9843L39.989 40.8704C40.5984 38.8547 42.4453 37.5 44.5312 37.5ZM51.5624 60.9375C54.0489 60.9375 56.4334 59.9498 58.1916 58.1917C59.9497 56.4335 60.9374 54.049 60.9374 51.5625C60.9374 49.0761 59.9497 46.6916 58.1916 44.9334C56.4334 43.1753 54.0489 42.1875 51.5624 42.1875C49.076 42.1875 46.6915 43.1753 44.9333 44.9334C43.1752 46.6916 42.1874 49.0761 42.1874 51.5625C42.1874 54.049 43.1752 56.4335 44.9333 58.1917C46.6915 59.9498 49.076 60.9375 51.5624 60.9375ZM98.4374 60.9375C100.924 60.9375 103.308 59.9498 105.067 58.1917C106.825 56.4335 107.812 54.049 107.812 51.5625C107.812 49.0761 106.825 46.6916 105.067 44.9334C103.308 43.1753 100.924 42.1875 98.4374 42.1875C95.951 42.1875 93.5665 43.1753 91.8083 44.9334C90.0502 46.6916 89.0624 49.0761 89.0624 51.5625C89.0624 54.049 90.0502 56.4335 91.8083 58.1917C93.5665 59.9498 95.951 60.9375 98.4374 60.9375ZM74.9999 42.1875C73.1351 42.1875 71.3467 42.9283 70.0281 44.247C68.7095 45.5656 67.9687 47.354 67.9687 49.2188C67.9687 51.0836 68.7095 52.872 70.0281 54.1906C71.3467 55.5093 73.1351 56.25 74.9999 56.25C76.8648 56.25 78.6532 55.5093 79.9718 54.1906C81.2904 52.872 82.0312 51.0836 82.0312 49.2188C82.0312 47.354 81.2904 45.5656 79.9718 44.247C78.6532 42.9283 76.8648 42.1875 74.9999 42.1875ZM31.1999 70.3125H118.8L121.875 80.5688V107.813H28.1249V80.5641L31.1999 70.3125ZM39.8437 75C37.9789 75 36.1905 75.7408 34.8719 77.0595C33.5532 78.3781 32.8124 80.1665 32.8124 82.0313C32.8124 83.8961 33.5532 85.6845 34.8719 87.0031C36.1905 88.3218 37.9789 89.0625 39.8437 89.0625C41.7085 89.0625 43.4969 88.3218 44.8155 87.0031C46.1342 85.6845 46.8749 83.8961 46.8749 82.0313C46.8749 80.1665 46.1342 78.3781 44.8155 77.0595C43.4969 75.7408 41.7085 75 39.8437 75ZM110.156 75C108.291 75 106.503 75.7408 105.184 77.0595C103.866 78.3781 103.125 80.1665 103.125 82.0313C103.125 83.8961 103.866 85.6845 105.184 87.0031C106.503 88.3218 108.291 89.0625 110.156 89.0625C112.021 89.0625 113.809 88.3218 115.128 87.0031C116.447 85.6845 117.187 83.8961 117.187 82.0313C117.187 80.1665 116.447 78.3781 115.128 77.0595C113.809 75.7408 112.021 75 110.156 75ZM56.2499 89.0625L50.3906 103.125H60.4968L62.5499 98.4375H87.4499L89.5031 103.125H99.6093L93.7499 89.0625H56.2499Z" fill="black"/>
</svg>
