<svg width="20" height="20" viewBox="0 0 20 20" fill="none" xmlns="http://www.w3.org/2000/svg">
<path d="M13.805 18.3326H13.8283C14.2683 18.3326 14.6842 18.1592 14.9992 17.8442L17.2592 15.5842C17.3366 15.5069 17.3981 15.4151 17.44 15.314C17.4819 15.2129 17.5035 15.1045 17.5035 14.9951C17.5035 14.8856 17.4819 14.7773 17.44 14.6762C17.3981 14.5751 17.3366 14.4832 17.2592 14.4059L13.9258 11.0726C13.8485 10.9951 13.7567 10.9337 13.6556 10.8918C13.5545 10.8498 13.4461 10.8282 13.3367 10.8282C13.2272 10.8282 13.1188 10.8498 13.0177 10.8918C12.9166 10.9337 12.8248 10.9951 12.7475 11.0726L11.4192 12.4009C10.8033 12.2176 9.65415 11.8009 8.92582 11.0726C8.19749 10.3442 7.78082 9.19508 7.59749 8.57925L8.92582 7.25091C9.00327 7.17359 9.06472 7.08175 9.10665 6.98066C9.14857 6.87956 9.17015 6.77119 9.17015 6.66175C9.17015 6.5523 9.14857 6.44393 9.10665 6.34284C9.06472 6.24174 9.00327 6.1499 8.92582 6.07258L5.59249 2.73925C5.43317 2.58887 5.22239 2.50511 5.00332 2.50511C4.78425 2.50511 4.57347 2.58887 4.41415 2.73925L2.15499 4.99925C1.83832 5.31591 1.65999 5.75091 1.66665 6.19508C1.68582 7.38175 1.99999 11.5034 5.24832 14.7517C8.49665 18.0001 12.6183 18.3134 13.805 18.3326V18.3326ZM5.00415 4.50675L7.15915 6.66175L6.08165 7.73925C5.9836 7.83703 5.91157 7.9578 5.87212 8.09054C5.83268 8.22328 5.82707 8.36378 5.85582 8.49925C5.87582 8.59508 6.36499 10.8676 7.74832 12.2509C9.13165 13.6342 11.4042 14.1234 11.5 14.1434C11.6354 14.1723 11.776 14.1668 11.9088 14.1273C12.0415 14.0879 12.1623 14.0158 12.26 13.9176L13.3375 12.8401L15.4925 14.9951L13.8208 16.6659C12.7808 16.6484 9.22249 16.3692 6.42665 13.5726C3.62165 10.7676 3.34999 7.19675 3.33332 6.17758L5.00415 4.50675ZM16.6658 9.16591H18.3325C18.3325 4.89091 15.105 1.66675 10.8242 1.66675V3.33341C14.2092 3.33341 16.6658 5.78591 16.6658 9.16591V9.16591Z" fill="#949494"/>
<path d="M10.8325 6.66667C12.585 6.66667 13.3325 7.41417 13.3325 9.16667H14.9992C14.9992 6.47917 13.52 5 10.8325 5V6.66667V6.66667Z" fill="#949494"/>
</svg>
